<svg width="1440" height="382" viewBox="0 0 1440 382" fill="none" xmlns="http://www.w3.org/2000/svg">
<mask id="mask0" mask-type="alpha" maskUnits="userSpaceOnUse" x="0" y="-804" width="1473" height="1186">
<path d="M2.96704 -549.526C64.1888 -635.609 288.553 -800 726.666 -803.999C729.939 -804.029 733.221 -803.134 736.014 -801.426L1445.89 -367.402C1466.03 -352.281 1467.6 -340.367 1470.14 -320.95L1470.14 -320.941C1470.27 -320.013 1470.39 -319.068 1470.52 -318.104C1473.23 -297.734 1471.8 -92.3031 1470.65 97.8116C1470.58 108.626 1460.88 116.762 1450.21 115.013L570.565 113.648V113.689C570.154 113.668 569.74 113.657 569.324 113.657C556.46 113.657 546.032 124.094 546.032 136.97C546.032 137.387 546.043 137.801 546.065 138.212H546.031V152.866C546.031 166.538 534.958 177.621 521.298 177.621C507.639 177.621 496.566 166.538 496.566 152.866V149.578C494.245 138.972 484.806 131.034 473.513 131.034C462.436 131.034 453.142 138.672 450.601 148.974C450.601 148.974 450.601 253.018 450.601 272.577C450.601 292.135 434.76 307.991 415.22 307.991C395.68 307.991 379.839 292.135 379.839 272.577V155.921C377.718 139.443 363.648 126.711 346.608 126.711C331.245 126.711 318.297 141.808 314.342 155.921V309.967C314.342 328.385 299.426 343.315 281.025 343.315C262.624 343.315 247.707 328.385 247.707 309.967V269.016H247.666C247.666 253.449 235.059 240.83 219.506 240.83C205.93 240.83 194.598 250.446 191.937 263.245V287.55C191.937 306.568 176.534 321.986 157.533 321.986C138.533 321.986 123.13 306.568 123.13 287.55V273.669C123.13 258.645 110.962 246.466 95.9516 246.466C81.4014 246.466 69.5218 257.911 68.8077 272.297V347.26C68.8077 366.279 53.4045 381.696 34.4038 381.696C15.4031 381.696 0 366.279 0 347.26V-539.879C0 -543.365 0.947613 -546.686 2.96704 -549.526Z" fill="#C4C4C4"/>
</mask>
<g mask="url(#mask0)">
<rect width="1409.12" height="248.54" transform="matrix(0.84829 -0.529435 0.675898 0.737069 -637.546 -176.606)" fill="#E5526A"/>
<rect width="1409.12" height="248.54" transform="matrix(0.84829 -0.529435 0.675898 0.737069 -469.571 6.56528)" fill="#FFFC33"/>
<rect width="1409.12" height="248.54" transform="matrix(0.84829 -0.529435 0.675898 0.737069 -301.598 189.735)" fill="#42C6FF"/>
<rect width="1582.85" height="248.54" transform="matrix(0.84829 -0.529435 0.675898 0.737069 -251.226 445.186)" fill="#E5526A"/>
<rect width="1409.12" height="248.54" transform="matrix(0.84829 -0.529436 0.675898 0.737069 64.1212 536.379)" fill="#FFFC33"/>
<rect width="1409.12" height="248.54" transform="matrix(0.84829 -0.529435 0.675898 0.737069 232.095 719.549)" fill="#42C6FF"/>
</g>
</svg>
