<svg width="1440" height="414" viewBox="0 0 1440 414" fill="none" xmlns="http://www.w3.org/2000/svg">
<mask id="mask0" mask-type="alpha" maskUnits="userSpaceOnUse" x="0" y="-682" width="1473" height="1096">
<path d="M2.96704 -427.526C64.1888 -513.609 288.553 -678 726.666 -681.999C729.939 -682.029 733.221 -681.134 736.014 -679.426L1445.89 -245.402C1466.03 -230.281 1467.6 -218.367 1470.14 -198.95L1470.14 -198.941C1470.27 -198.013 1470.39 -197.068 1470.52 -196.104C1473.23 -175.734 1471.8 29.6969 1470.65 219.812C1470.58 230.626 1460.88 238.762 1450.21 237.013L570.565 235.648V235.689C570.154 235.668 569.74 235.657 569.324 235.657C556.46 235.657 546.032 246.094 546.032 258.97C546.032 259.387 546.043 259.801 546.065 260.212H546.031V274.866C546.031 288.538 534.958 299.621 521.298 299.621C507.639 299.621 496.566 288.538 496.566 274.866V271.578C494.245 260.972 484.806 253.034 473.513 253.034C462.436 253.034 453.142 260.672 450.601 270.974C450.601 270.974 450.601 285.018 450.601 304.577C450.601 324.135 434.76 339.991 415.22 339.991C395.68 339.991 379.839 324.135 379.839 304.577V187.921C377.718 171.443 363.648 158.711 346.608 158.711C331.245 158.711 318.297 173.808 314.342 187.921V341.967C314.342 360.385 299.426 375.315 281.025 375.315C262.624 375.315 247.707 360.385 247.707 341.967V301.016H247.666C247.666 285.449 235.059 272.83 219.506 272.83C205.93 272.83 194.598 282.446 191.937 295.245V319.55C191.937 338.569 176.534 353.986 157.533 353.986C138.533 353.986 123.13 338.569 123.13 319.55V305.669C123.13 290.645 110.962 278.466 95.9516 278.466C81.4014 278.466 69.5218 289.911 68.8077 304.297V379.26C68.8077 398.279 53.4045 413.696 34.4038 413.696C15.4031 413.696 0 398.279 0 379.26V-417.879C0 -421.365 0.947613 -424.686 2.96704 -427.526Z" fill="#C4C4C4"/>
</mask>
<g mask="url(#mask0)">
<rect width="1409.12" height="248.54" transform="matrix(0.84829 -0.529435 0.675898 0.737069 -347.864 -9.95865)" fill="#FFFC33"/>
<rect width="1409.12" height="248.54" transform="matrix(0.84829 -0.529435 0.675898 0.737069 -179.891 173.211)" fill="#42C6FF"/>
<rect width="1582.85" height="248.54" transform="matrix(0.84829 -0.529435 0.675898 0.737069 -129.518 428.662)" fill="#E5526A"/>
<rect width="1409.12" height="248.54" transform="matrix(0.84829 -0.529436 0.675898 0.737069 185.829 519.855)" fill="#FFFC33"/>
<rect width="1409.12" height="248.54" transform="matrix(0.84829 -0.529435 0.675898 0.737069 353.803 703.025)" fill="#42C6FF"/>
</g>
</svg>
