<svg width="1920" height="381" viewBox="0 0 1920 381" fill="none" xmlns="http://www.w3.org/2000/svg">
<g clip-path="url(#clip0)">
<mask id="mask0" mask-type="alpha" maskUnits="userSpaceOnUse" x="0" y="-805" width="1953" height="1186">
<path d="M2.96704 -550.526C64.1888 -636.609 288.553 -801 726.666 -804.999C729.939 -805.029 733.221 -804.134 736.014 -802.426L1926.68 -368.402C1946.82 -353.281 1948.38 -341.367 1950.93 -321.95L1950.93 -321.941C1951.05 -321.013 1951.17 -320.068 1951.3 -319.104C1954.02 -298.734 1952.59 -93.3031 1951.43 96.8116C1951.37 107.626 1941.66 115.762 1931 114.013L570.565 112.648V112.689C570.154 112.668 569.74 112.657 569.324 112.657C556.46 112.657 546.032 123.094 546.032 135.97C546.032 136.387 546.043 136.801 546.065 137.212H546.031V151.866C546.031 165.538 534.958 176.621 521.298 176.621C507.639 176.621 496.566 165.538 496.566 151.866V148.578C494.245 137.972 484.806 130.034 473.513 130.034C462.436 130.034 453.142 137.672 450.601 147.974C450.601 147.974 450.601 252.018 450.601 271.577C450.601 291.135 434.76 306.991 415.22 306.991C395.68 306.991 379.839 291.135 379.839 271.577V154.921C377.718 138.443 363.648 125.711 346.608 125.711C331.245 125.711 318.297 140.808 314.342 154.921V308.967C314.342 327.385 299.426 342.315 281.025 342.315C262.624 342.315 247.707 327.385 247.707 308.967V268.016H247.666C247.666 252.449 235.059 239.83 219.506 239.83C205.93 239.83 194.598 249.446 191.937 262.245V286.55C191.937 305.568 176.534 320.986 157.533 320.986C138.533 320.986 123.13 305.568 123.13 286.55V272.669C123.13 257.645 110.962 245.466 95.9516 245.466C81.4014 245.466 69.5218 256.911 68.8077 271.297V346.26C68.8077 365.279 53.4045 380.696 34.4038 380.696C15.4031 380.696 0 365.279 0 346.26V-540.879C0 -544.365 0.947613 -547.686 2.96704 -550.526Z" fill="#C4C4C4"/>
</mask>
<g mask="url(#mask0)">
<rect width="1409.12" height="248.54" transform="matrix(0.84829 -0.529435 0.675898 0.737069 -301.598 188.736)" fill="#42C6FF"/>
<rect width="1582.85" height="248.54" transform="matrix(0.84829 -0.529435 0.675898 0.737069 -251.226 444.187)" fill="#E5526A"/>
<rect width="1409.12" height="248.54" transform="matrix(0.84829 -0.529436 0.675898 0.737069 217 439.04)" fill="#FFFC33"/>
<rect width="1409.12" height="248.54" transform="matrix(0.84829 -0.529435 0.675898 0.737069 641 462.04)" fill="#42C6FF"/>
<rect width="1409.12" height="248.54" transform="matrix(0.84829 -0.529435 0.675898 0.737069 1113 455.04)" fill="#E5526A"/>
<rect width="1409.12" height="248.54" transform="matrix(0.84829 -0.529435 0.675898 0.737069 1280.97 638.211)" fill="#FFFC33"/>
</g>
</g>
<defs>
<clipPath id="clip0">
<rect width="1920" height="381" fill="white"/>
</clipPath>
</defs>
</svg>
