<svg width="202" height="250" viewBox="0 0 202 250" fill="none" xmlns="http://www.w3.org/2000/svg">
<path fill-rule="evenodd" clip-rule="evenodd" d="M35.6119 18.8034C18.82 26.8574 9.53233 37.1883 7.2721 44.2258C7.1875 44.4892 7.13213 44.8454 7.13213 45.3718V214.278C7.13213 216.363 8.22476 218.225 9.94616 219.169C65.2235 249.486 139.85 251.964 191.947 219.34C193.485 218.377 194.444 216.624 194.444 214.668V64.5496C194.444 62.5199 193.387 60.6369 191.653 59.5808L107.748 8.46377C106.986 7.99909 106.119 7.71805 105.256 7.65172C75.6349 5.37525 52.1992 10.8477 35.6119 18.8034ZM32.5275 12.3727C50.3188 3.83948 75.0174 -1.82536 105.803 0.54056C107.814 0.695089 109.76 1.33804 111.459 2.37295L195.364 53.49C199.222 55.8405 201.576 60.0318 201.576 64.5496V214.668C201.576 218.938 199.471 223.043 195.732 225.385C141.091 259.602 63.6663 256.766 6.51652 225.422C2.40662 223.168 0 218.844 0 214.278V45.3718C0 44.3755 0.100589 43.2312 0.481598 42.0449L3.81491 43.1155L0.481599 42.0449C3.60569 32.3177 14.9409 20.8078 32.5275 12.3727Z" fill="#343434"/>
<path d="M80.8165 200.837C81.2309 201.061 81.4382 201.406 81.4382 201.873C81.4382 202.183 81.3346 202.468 81.1273 202.727C80.9201 203.004 80.6352 203.142 80.2726 203.142C80.0309 203.142 79.7978 203.081 79.5733 202.96C78.5027 202.356 77.3458 202.054 76.1026 202.054C74.8075 202.054 73.6593 202.339 72.6578 202.909C71.6735 203.478 70.9051 204.281 70.3526 205.317C69.8 206.336 69.5237 207.51 69.5237 208.84C69.5237 210.273 69.8087 211.508 70.3785 212.544C70.9483 213.58 71.734 214.374 72.7355 214.927C73.737 215.462 74.8593 215.73 76.1026 215.73C77.3804 215.73 78.5373 215.419 79.5733 214.797C79.7805 214.694 80.005 214.642 80.2467 214.642C80.6266 214.642 80.9288 214.789 81.1532 215.082C81.3605 215.341 81.4641 215.617 81.4641 215.911C81.4641 216.118 81.4036 216.317 81.2828 216.507C81.1791 216.679 81.0324 216.817 80.8424 216.921C80.169 217.301 79.4093 217.603 78.5632 217.828C77.7343 218.052 76.9141 218.164 76.1026 218.164C74.4276 218.164 72.8822 217.793 71.4663 217.051C70.0677 216.308 68.9453 215.229 68.0992 213.813C67.2704 212.397 66.856 210.739 66.856 208.84C66.856 207.096 67.2531 205.525 68.0474 204.126C68.859 202.71 69.9641 201.605 71.3627 200.811C72.7786 199.999 74.3586 199.593 76.1026 199.593C77.7775 199.593 79.3488 200.008 80.8165 200.837Z" fill="#343434"/>
<path d="M99.6386 216.299C99.6904 216.455 99.7163 216.619 99.7163 216.792C99.7163 217.137 99.5954 217.422 99.3537 217.646C99.1292 217.871 98.8616 217.983 98.5508 217.983C98.309 217.983 98.0845 217.914 97.8773 217.776C97.6874 217.62 97.532 217.413 97.4111 217.154L95.8053 213.347H87.8019L86.2219 217.18C86.1356 217.439 85.9888 217.638 85.7816 217.776C85.5917 217.914 85.3758 217.983 85.1341 217.983C84.7715 217.983 84.4952 217.888 84.3053 217.698C84.1153 217.508 84.0204 217.249 84.0204 216.921C84.0204 216.852 84.0376 216.714 84.0722 216.507L90.6769 200.5C90.7978 200.224 90.9618 200.016 91.169 199.878C91.3935 199.723 91.6438 199.662 91.9201 199.697C92.1791 199.697 92.4122 199.766 92.6194 199.904C92.8267 200.042 92.9734 200.241 93.0598 200.5L99.6386 216.299ZM94.821 210.99L91.7906 203.737L88.7861 210.99H94.821Z" fill="#343434"/>
<path d="M117.396 215.807C117.586 216.049 117.681 216.334 117.681 216.662C117.681 217.042 117.534 217.353 117.241 217.594C116.965 217.836 116.645 217.957 116.283 217.957C115.937 217.957 115.635 217.802 115.376 217.491L109.082 209.384L106.181 212.129V216.636C106.181 216.999 106.06 217.301 105.819 217.543C105.577 217.784 105.266 217.905 104.886 217.905C104.506 217.905 104.195 217.784 103.954 217.543C103.729 217.301 103.617 216.999 103.617 216.636V201.018C103.617 200.673 103.738 200.379 103.98 200.137C104.221 199.895 104.532 199.775 104.912 199.775C105.292 199.775 105.594 199.895 105.819 200.137C106.06 200.362 106.181 200.655 106.181 201.018V209.073L115.376 200.163C115.704 199.87 116.032 199.723 116.36 199.723C116.671 199.723 116.939 199.852 117.163 200.111C117.388 200.37 117.5 200.647 117.5 200.94C117.5 201.199 117.379 201.467 117.137 201.743L110.999 207.545L117.396 215.807Z" fill="#343434"/>
<path d="M132.343 215.522C132.706 215.522 132.999 215.643 133.224 215.885C133.466 216.127 133.587 216.412 133.587 216.74C133.587 217.085 133.466 217.37 133.224 217.594C132.999 217.802 132.706 217.905 132.343 217.905H123.33C122.984 217.905 122.691 217.784 122.449 217.543C122.207 217.301 122.087 217.007 122.087 216.662V201.018C122.087 200.673 122.207 200.379 122.449 200.137C122.691 199.895 122.984 199.775 123.33 199.775H132.343C132.706 199.775 132.999 199.887 133.224 200.111C133.466 200.336 133.587 200.629 133.587 200.992C133.587 201.337 133.466 201.622 133.224 201.847C132.999 202.054 132.706 202.158 132.343 202.158H124.651V207.441H131.178C131.54 207.441 131.834 207.554 132.058 207.778C132.3 208.002 132.421 208.287 132.421 208.633C132.421 208.995 132.3 209.28 132.058 209.487C131.834 209.695 131.54 209.798 131.178 209.798H124.651V215.522H132.343Z" fill="#343434"/>
<path d="M41.8448 181.839L42.6218 181.278C43.6003 180.702 44.291 180.415 44.6939 180.415C45.586 180.415 46.5501 181.22 47.5862 182.832C48.2193 183.839 48.5359 184.645 48.5359 185.25C48.5359 185.854 48.3344 186.357 47.9315 186.76C47.5574 187.163 47.1113 187.523 46.5933 187.84C46.0753 188.156 45.5717 188.458 45.0824 188.746C44.622 189.034 43.6579 189.408 42.1901 189.868C40.7224 190.329 39.2979 190.559 37.9165 190.559C36.5639 190.559 35.1825 190.387 33.7724 190.041C32.391 189.667 30.952 189.063 29.4555 188.228C27.9878 187.365 26.664 186.329 25.4841 185.12C24.3041 183.883 23.3257 182.314 22.5486 180.415C21.8004 178.486 21.4263 176.4 21.4263 174.155C21.4263 171.911 21.8004 169.882 22.5486 168.069C23.2969 166.227 24.2466 164.716 25.3977 163.536C26.5777 162.327 27.9159 161.32 29.4124 160.514C32.2327 158.96 35.0674 158.183 37.9165 158.183C39.2691 158.183 40.6361 158.399 42.0175 158.831C43.4276 159.234 44.4924 159.651 45.2119 160.082L46.248 160.687C46.766 161.003 47.1689 161.262 47.4567 161.464C48.2049 162.068 48.579 162.759 48.579 163.536C48.579 164.284 48.2769 165.076 47.6725 165.91C46.5501 167.464 45.5429 168.241 44.6507 168.241C44.1327 168.241 43.3989 167.925 42.4492 167.292C41.2404 166.313 39.6288 165.824 37.6143 165.824C35.7437 165.824 33.9019 166.471 32.0888 167.766C31.2254 168.4 30.506 169.292 29.9304 170.443C29.3548 171.594 29.067 172.903 29.067 174.371C29.067 175.81 29.3548 177.105 29.9304 178.256C30.506 179.407 31.2398 180.314 32.132 180.976C33.8875 182.242 35.7149 182.875 37.6143 182.875C38.5065 182.875 39.341 182.76 40.1181 182.53C40.9239 182.3 41.4995 182.069 41.8448 181.839Z" fill="#343434"/>
<path d="M70.9479 160.73L82.6033 184.818C83.0925 185.796 83.3371 186.53 83.3371 187.019C83.3371 188.055 82.5026 188.991 80.8334 189.825C79.8549 190.315 79.0779 190.559 78.5023 190.559C77.9555 190.559 77.4951 190.43 77.1209 190.171C76.7756 189.912 76.5166 189.638 76.3439 189.35C76.2 189.063 75.9842 188.631 75.6964 188.055L73.4516 183.393H61.4941L59.2493 188.055C58.9615 188.631 58.7313 189.048 58.5586 189.307C58.4147 189.566 58.1557 189.84 57.7816 190.128C57.4363 190.387 56.9758 190.516 56.4002 190.516C55.8534 190.516 55.0908 190.271 54.1123 189.782C52.4431 188.976 51.6086 188.055 51.6086 187.019C51.6086 186.53 51.8532 185.796 52.3424 184.818L63.9978 160.687C64.3144 160.025 64.7892 159.493 65.4224 159.09C66.0843 158.687 66.775 158.485 67.4944 158.485C69.0485 158.485 70.1996 159.234 70.9479 160.73ZM67.4513 171.09L64.6022 177.004H70.3435L67.4513 171.09Z" fill="#343434"/>
<path d="M108.273 159.823C108.561 159.305 108.978 158.96 109.525 158.787C110.072 158.615 110.748 158.528 111.554 158.528C112.389 158.528 113.05 158.6 113.54 158.744C114.058 158.888 114.432 159.061 114.662 159.262C114.921 159.464 115.108 159.766 115.223 160.169C115.396 160.629 115.482 161.363 115.482 162.37V186.329C115.482 187.019 115.453 187.523 115.396 187.84C115.367 188.156 115.238 188.53 115.007 188.962C114.604 189.739 113.482 190.128 111.64 190.128C110.518 190.128 109.741 190.041 109.309 189.868C108.878 189.696 108.518 189.422 108.23 189.048C101.755 180.415 97.4955 174.774 95.4522 172.126V186.329C95.4522 187.019 95.4234 187.523 95.3659 187.84C95.3371 188.156 95.2076 188.53 94.9774 188.962C94.5745 189.739 93.4521 190.128 91.6102 190.128C89.826 190.128 88.7324 189.739 88.3295 188.962C88.0992 188.53 87.9553 188.142 87.8978 187.796C87.869 187.451 87.8546 186.947 87.8546 186.286V162.198C87.8546 161.104 87.9841 160.313 88.2431 159.823C88.5309 159.305 88.9482 158.96 89.495 158.787C90.0418 158.615 90.7469 158.528 91.6102 158.528C92.4736 158.528 93.1499 158.615 93.6392 158.787C94.1572 158.931 94.5169 159.104 94.7184 159.305C94.8335 159.392 95.1644 159.766 95.7112 160.428C101.784 168.687 105.841 174.141 107.885 176.789V162.198C107.885 161.104 108.014 160.313 108.273 159.823Z" fill="#343434"/>
<path d="M124.924 158.442L132.91 158.485C137.083 158.485 140.753 159.996 143.918 163.018C147.084 166.011 148.667 169.709 148.667 174.112C148.667 178.486 147.113 182.242 144.005 185.379C140.925 188.516 137.184 190.084 132.781 190.084H124.881C123.126 190.084 122.032 189.725 121.6 189.005C121.255 188.401 121.082 187.48 121.082 186.242V162.241C121.082 161.55 121.097 161.047 121.125 160.73C121.183 160.413 121.327 160.039 121.557 159.608C121.96 158.831 123.082 158.442 124.924 158.442ZM132.91 182.444C134.982 182.444 136.853 181.681 138.522 180.156C140.191 178.602 141.026 176.659 141.026 174.328C141.026 171.997 140.206 170.054 138.565 168.5C136.954 166.917 135.054 166.126 132.867 166.126H128.723V182.444H132.91Z" fill="#343434"/>
<path d="M176.609 159.09C178.019 160.068 178.725 161.018 178.725 161.939C178.725 162.486 178.394 163.248 177.732 164.227L168.407 178.17V186.415C168.407 187.077 168.379 187.581 168.321 187.926C168.292 188.242 168.163 188.617 167.933 189.048C167.702 189.48 167.314 189.782 166.767 189.955C166.22 190.128 165.486 190.214 164.565 190.214C163.645 190.214 162.911 190.128 162.364 189.955C161.817 189.782 161.429 189.48 161.198 189.048C160.968 188.588 160.824 188.199 160.767 187.883C160.738 187.537 160.723 187.019 160.723 186.329V178.17L151.399 164.227C150.737 163.248 150.406 162.486 150.406 161.939C150.406 161.018 151.039 160.14 152.306 159.305C153.572 158.442 154.478 158.01 155.025 158.01C155.572 158.01 156.004 158.126 156.32 158.356C156.81 158.672 157.328 159.262 157.874 160.126L164.565 170.831L171.256 160.126C171.803 159.262 172.278 158.701 172.681 158.442C173.084 158.154 173.544 158.01 174.062 158.01C174.609 158.01 175.458 158.37 176.609 159.09Z" fill="#343434"/>
<path d="M82.4342 21.8079L21.9595 59.5168L21.9595 48.9892C21.9595 48.6176 22.0606 48.2635 22.2761 47.9608C27.9607 39.9753 46.8273 25.6682 82.4342 21.8079Z" fill="#E5526A"/>
<path d="M122.123 34.32L21.9595 96.7771L21.9595 59.5169L82.4342 21.8079C87.7451 21.2321 93.4284 20.8887 99.496 20.8334C99.8452 20.8302 100.195 20.9256 100.493 21.1077L122.123 34.32Z" fill="#FFFC33"/>
<path d="M29.3014 129.459L22.9585 133.414C22.3391 132.757 21.9595 131.871 21.9595 130.897L21.9595 96.777L122.123 34.3199L152.308 52.7582L45.1806 119.558C44.1516 119.626 43.2642 120.211 42.7766 121.057L35.103 125.842C35.0994 125.775 35.0976 125.709 35.0976 125.642L35.0976 123.052C35.0976 121.45 33.7993 120.152 32.1977 120.152C30.6451 120.152 29.3776 121.372 29.3014 122.906L29.3014 129.459Z" fill="#42C6FF"/>
<path d="M178.91 73.2864L101.297 121.682L82.8398 118.657L82.8398 118.661C82.796 118.659 82.7518 118.658 82.7074 118.658C81.3348 118.658 80.2221 119.77 80.2221 121.143C80.2221 121.187 80.2233 121.232 80.2256 121.275L80.222 121.275L80.222 126.119C80.222 127.576 79.0405 128.758 77.583 128.758C76.1255 128.758 74.944 127.576 74.944 126.119L74.944 125.768C74.6964 124.638 73.6892 123.792 72.4842 123.792C71.3023 123.792 70.3106 124.606 70.0395 125.704L70.0395 135.559C70.0395 137.644 68.3492 139.335 66.2642 139.335C64.1792 139.335 62.489 137.644 62.489 135.559L62.489 119.842C62.2627 118.086 60.7614 116.728 58.9432 116.728C57.304 116.728 55.9224 117.832 55.5004 119.336L55.5004 129.511C55.5004 131.475 53.9088 133.066 51.9454 133.066C49.982 133.066 48.3904 131.475 48.3904 129.511L48.3904 122.556L48.386 122.556C48.386 120.896 47.0407 119.551 45.3813 119.551C45.2163 119.551 45.0545 119.564 44.8967 119.59L152.191 52.6866L176.239 67.3757C178.388 68.9876 178.555 70.2577 178.826 72.3276L178.826 72.3285C178.839 72.4275 178.853 72.5282 178.866 72.631C178.882 72.749 178.897 72.9702 178.91 73.2864Z" fill="#E5526A"/>
<path d="M42.9318 120.815L35.0981 125.7C35.1293 127.7 36.7607 129.313 38.7686 129.313C40.796 129.313 42.4396 127.669 42.4396 125.642L42.4396 121.941C42.5254 121.528 42.6958 121.147 42.9318 120.815Z" fill="#E5526A"/>
<path d="M29.3014 129.314L29.3014 130.897C29.3014 132.924 27.6579 134.568 25.6305 134.568C24.5326 134.568 23.5472 134.086 22.8745 133.322L29.3014 129.314Z" fill="#E5526A"/>
<path d="M148.616 129.436L101.297 121.682L178.91 73.2865C179.065 77.0198 179.05 93.9875 178.987 110.498L148.616 129.436Z" fill="#FFFC33"/>
<path d="M178.988 110.498C178.958 118.322 178.918 126.043 178.88 132.204C178.873 133.357 177.838 134.225 176.7 134.038L148.617 129.436L178.988 110.498Z" fill="#42C6FF"/>
<path d="M99.496 20.8334C52.7486 21.2597 28.8085 38.7842 22.2761 47.9609C22.0606 48.2636 21.9595 48.6176 21.9595 48.9892L21.9595 130.897C21.9595 132.924 23.603 134.568 25.6304 134.568C27.6578 134.568 29.3014 132.924 29.3014 130.897L29.3014 122.906C29.3776 121.372 30.6451 120.152 32.1977 120.152C33.7993 120.152 35.0976 121.45 35.0976 123.052L35.0976 125.642C35.0976 127.669 36.7411 129.313 38.7686 129.313C40.796 129.313 42.4395 127.669 42.4395 125.642L42.4395 121.941C42.7234 120.576 43.9326 119.551 45.3812 119.551C47.0407 119.551 48.3859 120.896 48.3859 122.556L48.3903 122.556L48.3903 129.511C48.3903 131.475 49.9819 133.066 51.9453 133.066C53.9087 133.066 55.5003 131.475 55.5003 129.511L55.5003 119.336C55.9223 117.832 57.3039 116.728 58.9432 116.728C60.7614 116.728 62.2626 118.086 62.489 119.842L62.4889 135.559C62.489 137.644 64.1792 139.335 66.2642 139.335C68.3492 139.335 70.0394 137.644 70.0394 135.559L70.0394 125.704C70.3105 124.606 71.3022 123.792 72.4842 123.792C73.6891 123.792 74.6963 124.638 74.9439 125.768L74.9439 126.119C74.9439 127.576 76.1255 128.758 77.5829 128.758C79.0404 128.758 80.2219 127.576 80.2219 126.119L80.2219 121.275L80.2255 121.275C80.2232 121.232 80.222 121.187 80.222 121.143C80.222 119.77 81.3347 118.658 82.7073 118.658C82.7517 118.658 82.7959 118.659 82.8397 118.661L82.8397 118.657L176.7 134.038C177.838 134.225 178.873 133.357 178.88 132.204C179.003 111.938 179.156 74.8024 178.866 72.631C178.853 72.5282 178.839 72.4275 178.826 72.3285L178.826 72.3276C178.555 70.2577 178.388 68.9876 176.239 67.3757L100.493 21.1077C100.195 20.9256 99.8452 20.8302 99.496 20.8334Z" fill="url(#paint0_angular)" style="mix-blend-mode:multiply"/>
<defs>
<radialGradient id="paint0_angular" cx="0" cy="0" r="1" gradientUnits="userSpaceOnUse" gradientTransform="translate(168.543 70.3828) rotate(-171.562) scale(148.378 209.017)">
<stop stop-color="#CDC5C5" stop-opacity="0"/>
<stop offset="1" stop-color="#C8C8C8" stop-opacity="0.63"/>
</radialGradient>
</defs>
</svg>
