<svg width="537" height="666" viewBox="0 0 537 666" fill="none" xmlns="http://www.w3.org/2000/svg">
<g clip-path="url(#clip0)">
<rect width="537" height="666" fill="white"/>
<path fill-rule="evenodd" clip-rule="evenodd" d="M94.8702 50.0924C50.1364 71.5481 25.3942 99.0697 19.3729 117.818C19.1475 118.519 19 119.468 19 120.871V570.837C19 576.39 21.9108 581.351 26.4966 583.866C173.755 664.63 372.561 671.232 511.347 584.322C515.444 581.756 518 577.086 518 571.875V171.96C518 166.553 515.182 161.537 510.564 158.723L287.042 22.5475C285.01 21.3096 282.703 20.5609 280.403 20.3842C201.491 14.3197 139.059 28.8982 94.8702 50.0924ZM86.6534 32.961C134.049 10.2284 199.846 -4.86276 281.859 1.44005C287.216 1.85172 292.401 3.56454 296.927 6.32155L520.45 142.497C530.728 148.759 537 159.925 537 171.96V571.875C537 583.25 531.391 594.188 521.431 600.425C375.866 691.58 169.607 684.025 17.36 600.525C6.41124 594.521 0 583.001 0 570.837V120.871C0 118.217 0.267968 115.168 1.28298 112.008L10.1629 114.86L1.28298 112.008C9.60556 86.0944 39.8027 55.4321 86.6534 32.961Z" fill="#343434"/>
<path d="M215.295 535.029C216.399 535.627 216.951 536.547 216.951 537.789C216.951 538.617 216.675 539.376 216.123 540.066C215.571 540.802 214.812 541.17 213.846 541.17C213.202 541.17 212.581 541.009 211.983 540.687C209.131 539.077 206.049 538.272 202.737 538.272C199.287 538.272 196.228 539.031 193.56 540.549C190.938 542.067 188.891 544.206 187.419 546.966C185.947 549.68 185.211 552.808 185.211 556.35C185.211 560.168 185.97 563.457 187.488 566.217C189.006 568.977 191.099 571.093 193.767 572.565C196.435 573.991 199.425 574.704 202.737 574.704C206.141 574.704 209.223 573.876 211.983 572.22C212.535 571.944 213.133 571.806 213.777 571.806C214.789 571.806 215.594 572.197 216.192 572.979C216.744 573.669 217.02 574.405 217.02 575.187C217.02 575.739 216.859 576.268 216.537 576.774C216.261 577.234 215.87 577.602 215.364 577.878C213.57 578.89 211.546 579.695 209.292 580.293C207.084 580.891 204.899 581.19 202.737 581.19C198.275 581.19 194.158 580.201 190.386 578.223C186.66 576.245 183.67 573.37 181.416 569.598C179.208 565.826 178.104 561.41 178.104 556.35C178.104 551.704 179.162 547.518 181.278 543.792C183.44 540.02 186.384 537.076 190.11 534.96C193.882 532.798 198.091 531.717 202.737 531.717C207.199 531.717 211.385 532.821 215.295 535.029Z" fill="#343434"/>
<path d="M265.437 576.222C265.575 576.636 265.644 577.073 265.644 577.533C265.644 578.453 265.322 579.212 264.678 579.81C264.08 580.408 263.367 580.707 262.539 580.707C261.895 580.707 261.297 580.523 260.745 580.155C260.239 579.741 259.825 579.189 259.503 578.499L255.225 568.356H233.904L229.695 578.568C229.465 579.258 229.074 579.787 228.522 580.155C228.016 580.523 227.441 580.707 226.797 580.707C225.831 580.707 225.095 580.454 224.589 579.948C224.083 579.442 223.83 578.752 223.83 577.878C223.83 577.694 223.876 577.326 223.968 576.774L241.563 534.132C241.885 533.396 242.322 532.844 242.874 532.476C243.472 532.062 244.139 531.901 244.875 531.993C245.565 531.993 246.186 532.177 246.738 532.545C247.29 532.913 247.681 533.442 247.911 534.132L265.437 576.222ZM252.603 562.077L244.53 542.757L236.526 562.077H252.603Z" fill="#343434"/>
<path d="M312.743 574.911C313.249 575.555 313.502 576.314 313.502 577.188C313.502 578.2 313.111 579.028 312.329 579.672C311.593 580.316 310.742 580.638 309.776 580.638C308.856 580.638 308.051 580.224 307.361 579.396L290.594 557.799L282.866 565.113V577.119C282.866 578.085 282.544 578.89 281.9 579.534C281.256 580.178 280.428 580.5 279.416 580.5C278.404 580.5 277.576 580.178 276.932 579.534C276.334 578.89 276.035 578.085 276.035 577.119V535.512C276.035 534.592 276.357 533.81 277.001 533.166C277.645 532.522 278.473 532.2 279.485 532.2C280.497 532.2 281.302 532.522 281.9 533.166C282.544 533.764 282.866 534.546 282.866 535.512V556.971L307.361 533.235C308.235 532.453 309.109 532.062 309.983 532.062C310.811 532.062 311.524 532.407 312.122 533.097C312.72 533.787 313.019 534.523 313.019 535.305C313.019 535.995 312.697 536.708 312.053 537.444L295.7 552.9L312.743 574.911Z" fill="#343434"/>
<path d="M352.562 574.152C353.528 574.152 354.31 574.474 354.908 575.118C355.552 575.762 355.874 576.521 355.874 577.395C355.874 578.315 355.552 579.074 354.908 579.672C354.31 580.224 353.528 580.5 352.562 580.5H328.55C327.63 580.5 326.848 580.178 326.204 579.534C325.56 578.89 325.238 578.108 325.238 577.188V535.512C325.238 534.592 325.56 533.81 326.204 533.166C326.848 532.522 327.63 532.2 328.55 532.2H352.562C353.528 532.2 354.31 532.499 354.908 533.097C355.552 533.695 355.874 534.477 355.874 535.443C355.874 536.363 355.552 537.122 354.908 537.72C354.31 538.272 353.528 538.548 352.562 538.548H332.069V552.624H349.457C350.423 552.624 351.205 552.923 351.803 553.521C352.447 554.119 352.769 554.878 352.769 555.798C352.769 556.764 352.447 557.523 351.803 558.075C351.205 558.627 350.423 558.903 349.457 558.903H332.069V574.152H352.562Z" fill="#343434"/>
<path d="M111.475 484.42L113.545 482.925C116.151 481.392 117.991 480.625 119.065 480.625C121.441 480.625 124.01 482.772 126.77 487.065C128.456 489.748 129.3 491.895 129.3 493.505C129.3 495.115 128.763 496.457 127.69 497.53C126.693 498.603 125.505 499.562 124.125 500.405C122.745 501.248 121.403 502.053 120.1 502.82C118.873 503.587 116.305 504.583 112.395 505.81C108.485 507.037 104.69 507.65 101.01 507.65C97.4063 507.65 93.7263 507.19 89.9696 506.27C86.2896 505.273 82.4563 503.663 78.4696 501.44C74.5596 499.14 71.0329 496.38 67.8896 493.16C64.7463 489.863 62.1396 485.685 60.0696 480.625C58.0763 475.488 57.0796 469.93 57.0796 463.95C57.0796 457.97 58.0763 452.565 60.0696 447.735C62.0629 442.828 64.5929 438.803 67.6596 435.66C70.8029 432.44 74.3679 429.757 78.3546 427.61C85.8679 423.47 93.4196 421.4 101.01 421.4C104.613 421.4 108.255 421.975 111.935 423.125C115.691 424.198 118.528 425.31 120.445 426.46L123.205 428.07C124.585 428.913 125.658 429.603 126.425 430.14C128.418 431.75 129.415 433.59 129.415 435.66C129.415 437.653 128.61 439.762 127 441.985C124.01 446.125 121.326 448.195 118.95 448.195C117.57 448.195 115.615 447.352 113.085 445.665C109.865 443.058 105.571 441.755 100.205 441.755C95.2213 441.755 90.3146 443.48 85.4846 446.93C83.1846 448.617 81.2679 450.993 79.7346 454.06C78.2013 457.127 77.4346 460.615 77.4346 464.525C77.4346 468.358 78.2013 471.808 79.7346 474.875C81.2679 477.942 83.2229 480.357 85.5996 482.12C90.2763 485.493 95.1446 487.18 100.205 487.18C102.581 487.18 104.805 486.873 106.875 486.26C109.021 485.647 110.555 485.033 111.475 484.42Z" fill="#343434"/>
<path d="M189.005 428.185L220.055 492.355C221.359 494.962 222.01 496.917 222.01 498.22C222.01 500.98 219.787 503.472 215.34 505.695C212.734 506.998 210.664 507.65 209.13 507.65C207.674 507.65 206.447 507.305 205.45 506.615C204.53 505.925 203.84 505.197 203.38 504.43C202.997 503.663 202.422 502.513 201.655 500.98L195.675 488.56H163.82L157.84 500.98C157.074 502.513 156.46 503.625 156 504.315C155.617 505.005 154.927 505.733 153.93 506.5C153.01 507.19 151.784 507.535 150.25 507.535C148.794 507.535 146.762 506.883 144.155 505.58C139.709 503.433 137.485 500.98 137.485 498.22C137.485 496.917 138.137 494.962 139.44 492.355L170.49 428.07C171.334 426.307 172.599 424.888 174.285 423.815C176.049 422.742 177.889 422.205 179.805 422.205C183.945 422.205 187.012 424.198 189.005 428.185ZM179.69 455.785L172.1 471.54H187.395L179.69 455.785Z" fill="#343434"/>
<path d="M288.44 425.77C289.206 424.39 290.318 423.47 291.775 423.01C293.231 422.55 295.033 422.32 297.18 422.32C299.403 422.32 301.166 422.512 302.47 422.895C303.85 423.278 304.846 423.738 305.46 424.275C306.15 424.812 306.648 425.617 306.955 426.69C307.415 427.917 307.645 429.872 307.645 432.555V496.38C307.645 498.22 307.568 499.562 307.415 500.405C307.338 501.248 306.993 502.245 306.38 503.395C305.306 505.465 302.316 506.5 297.41 506.5C294.42 506.5 292.35 506.27 291.2 505.81C290.05 505.35 289.091 504.622 288.325 503.625C271.075 480.625 259.728 465.598 254.285 458.545V496.38C254.285 498.22 254.208 499.562 254.055 500.405C253.978 501.248 253.633 502.245 253.02 503.395C251.946 505.465 248.956 506.5 244.05 506.5C239.296 506.5 236.383 505.465 235.31 503.395C234.696 502.245 234.313 501.21 234.16 500.29C234.083 499.37 234.045 498.028 234.045 496.265V432.095C234.045 429.182 234.39 427.073 235.08 425.77C235.846 424.39 236.958 423.47 238.415 423.01C239.871 422.55 241.75 422.32 244.05 422.32C246.35 422.32 248.151 422.55 249.455 423.01C250.835 423.393 251.793 423.853 252.33 424.39C252.636 424.62 253.518 425.617 254.975 427.38C271.151 449.383 281.961 463.912 287.405 470.965V432.095C287.405 429.182 287.75 427.073 288.44 425.77Z" fill="#343434"/>
<path d="M332.798 422.09L354.073 422.205C365.19 422.205 374.965 426.23 383.398 434.28C391.832 442.253 396.048 452.105 396.048 463.835C396.048 475.488 391.908 485.493 383.628 493.85C375.425 502.207 365.458 506.385 353.728 506.385H332.683C328.007 506.385 325.093 505.427 323.943 503.51C323.023 501.9 322.563 499.447 322.563 496.15V432.21C322.563 430.37 322.602 429.028 322.678 428.185C322.832 427.342 323.215 426.345 323.828 425.195C324.902 423.125 327.892 422.09 332.798 422.09ZM354.073 486.03C359.593 486.03 364.577 483.998 369.023 479.935C373.47 475.795 375.693 470.62 375.693 464.41C375.693 458.2 373.508 453.025 369.138 448.885C364.845 444.668 359.785 442.56 353.958 442.56H342.918V486.03H354.073Z" fill="#343434"/>
<path d="M470.488 423.815C474.244 426.422 476.123 428.952 476.123 431.405C476.123 432.862 475.241 434.893 473.478 437.5L448.638 474.645V496.61C448.638 498.373 448.561 499.715 448.408 500.635C448.331 501.478 447.986 502.475 447.373 503.625C446.759 504.775 445.724 505.58 444.268 506.04C442.811 506.5 440.856 506.73 438.403 506.73C435.949 506.73 433.994 506.5 432.538 506.04C431.081 505.58 430.046 504.775 429.433 503.625C428.819 502.398 428.436 501.363 428.283 500.52C428.206 499.6 428.168 498.22 428.168 496.38V474.645L403.328 437.5C401.564 434.893 400.683 432.862 400.683 431.405C400.683 428.952 402.369 426.613 405.743 424.39C409.116 422.09 411.531 420.94 412.988 420.94C414.444 420.94 415.594 421.247 416.438 421.86C417.741 422.703 419.121 424.275 420.578 426.575L438.403 455.095L456.228 426.575C457.684 424.275 458.949 422.78 460.023 422.09C461.096 421.323 462.323 420.94 463.703 420.94C465.159 420.94 467.421 421.898 470.488 423.815Z" fill="#343434"/>
<mask id="mask0" mask-type="alpha" maskUnits="userSpaceOnUse" x="58" y="55" width="419" height="317">
<path d="M59.3434 127.768C76.7459 103.321 140.522 56.636 265.057 55.5001C265.988 55.4916 266.921 55.7459 267.715 56.2309L469.5 179.489C475.225 183.783 475.67 187.167 476.393 192.681L476.394 192.683C476.428 192.947 476.464 193.215 476.5 193.489C477.271 199.274 476.865 298.202 476.536 352.193C476.518 355.264 473.76 357.575 470.729 357.078L220.685 316.102V316.114C220.568 316.107 220.451 316.104 220.332 316.104C216.676 316.104 213.712 319.069 213.712 322.725C213.712 322.843 213.715 322.961 213.721 323.078H213.711V335.981C213.711 339.864 210.564 343.011 206.681 343.011C202.798 343.011 199.651 339.864 199.651 335.981V335.047C198.991 332.035 196.308 329.781 193.098 329.781C189.949 329.781 187.307 331.95 186.585 334.876V361.13C186.585 366.685 182.082 371.188 176.528 371.188C170.973 371.188 166.471 366.685 166.471 361.13V319.26C165.868 314.58 161.868 310.964 157.025 310.964C152.658 310.964 148.977 313.903 147.853 317.911V345.018C147.853 350.249 143.613 354.489 138.382 354.489C133.152 354.489 128.912 350.249 128.912 345.018V326.489H128.9C128.9 322.068 125.316 318.484 120.895 318.484C117.036 318.484 113.815 321.215 113.059 324.85V334.71C113.059 340.111 108.68 344.489 103.279 344.489C97.8784 344.489 93.5 340.111 93.5 334.71V327.811C93.5 323.544 90.0412 320.085 85.7746 320.085C81.6387 320.085 78.2618 323.335 78.0588 327.421V348.71C78.0588 354.111 73.6804 358.489 68.2794 358.489C62.8784 358.489 58.5 354.111 58.5 348.71V130.507C58.5 129.517 58.7694 128.574 59.3434 127.768Z" fill="#C4C4C4"/>
</mask>
<g mask="url(#mask0)">
<rect width="485.958" height="85.6913" transform="matrix(0.848551 -0.529114 0.676213 0.736706 -129.493 176.515)" fill="#E5526A"/>
<rect width="485.958" height="85.6913" transform="matrix(0.848551 -0.529114 0.676213 0.736706 -71.5474 239.644)" fill="#FFFC33"/>
<rect width="485.958" height="85.6913" transform="matrix(0.848551 -0.529114 0.676213 0.736706 -13.6021 302.773)" fill="#42C6FF"/>
<rect width="485.958" height="85.6913" transform="matrix(0.848551 -0.529114 0.676213 0.736706 54.6138 359.113)" fill="#E5526A"/>
<rect width="485.958" height="85.6913" transform="matrix(0.848551 -0.529114 0.676213 0.736706 112.559 422.242)" fill="#FFFC33"/>
<rect width="485.958" height="85.6913" transform="matrix(0.848551 -0.529114 0.676213 0.736706 170.505 485.372)" fill="#42C6FF"/>
<rect x="25.7822" y="-25.488" width="540" height="383.338" transform="rotate(8.11087 25.7822 -25.488)" fill="url(#paint0_angular)" style="mix-blend-mode:multiply"/>
</g>
</g>
<defs>
<radialGradient id="paint0_angular" cx="0" cy="0" r="1" gradientUnits="userSpaceOnUse" gradientTransform="translate(474.817 125.658) rotate(-179.673) scale(395.278 556.82)">
<stop stop-color="#CDC5C5" stop-opacity="0"/>
<stop offset="1" stop-color="#C8C8C8" stop-opacity="0.63"/>
</radialGradient>
<clipPath id="clip0">
<rect width="537" height="666" fill="white"/>
</clipPath>
</defs>
</svg>


